<?xml version="1.0" encoding="UTF-8" standalone="no"?>
<!DOCTYPE svg PUBLIC "-//W3C//DTD SVG 1.1//EN" "http://www.w3.org/Graphics/SVG/1.1/DTD/svg11.dtd">
<svg xmlns="http://www.w3.org/2000/svg" version="1.1" viewBox="0.00 0.00 768.00 768.00">
<g stroke-width="2.00" fill="none" stroke-linecap="butt">
<path stroke="#55b758" vector-effect="non-scaling-stroke" d="
  M 768.00 86.48
  L 767.35 93.81
  Q 767.29 94.44 767.13 93.87
  Q 767.09 93.75 767.17 93.60
  A 0.49 0.49 0.0 0 0 766.74 92.88
  L 739.21 92.88
  A 0.82 0.75 -28.9 0 1 738.84 92.79
  Q 738.56 92.66 738.25 92.66
  Q 393.00 92.63 47.75 92.63
  C 33.55 92.63 16.64 93.05 1.08 92.82
  A 0.32 0.31 21.1 0 0 0.82 92.93
  Q 0.72 93.04 0.61 93.14
  Q 0.32 93.37 0.36 93.01
  Q 0.63 90.53 0.00 88.36"
/>
<path stroke="#51b668" vector-effect="non-scaling-stroke" d="
  M 768.00 153.49
  L 767.20 154.54
  Q 767.12 154.64 767.25 154.68
  Q 767.37 154.71 767.51 154.76
  A 0.85 0.56 -24.4 0 1 766.75 155.96
  L 0.93 155.96
  Q 0.81 155.96 0.75 156.06
  Q 0.65 156.21 0.51 156.19
  Q 0.34 156.17 0.33 156.00
  L 0.00 150.98"
/>
<path stroke="#4cb47c" vector-effect="non-scaling-stroke" d="
  M 768.00 241.86
  L 767.45 249.16
  A 0.45 0.45 0.0 0 1 766.60 249.32
  Q 766.34 248.76 765.90 248.38
  Q 765.59 248.10 765.18 248.10
  Q 752.71 248.10 740.25 248.15
  Q 739.88 248.15 739.55 248.02
  Q 739.16 247.86 738.74 247.86
  L 656.50 247.86
  A 0.32 0.28 -62.9 0 0 656.30 247.94
  Q 656.18 248.05 656.00 248.05
  Q 636.89 248.11 617.78 248.11
  Q 617.69 248.11 616.75 248.00
  Q 615.69 247.88 615.00 248.80
  A 1.04 1.01 -80.5 0 1 614.55 249.13
  Q 613.22 249.60 613.43 248.67"
/>
<path stroke="#a7dab7" vector-effect="non-scaling-stroke" d="
  M 613.43 248.67
  L 669.49 211.59
  Q 670.38 211.00 669.31 210.90
  Q 668.56 210.82 667.32 211.37
  C 643.20 222.20 619.38 233.66 595.47 244.96
  C 575.07 254.60 554.30 264.29 533.06 271.95"
/>
<path stroke="#4cb47c" vector-effect="non-scaling-stroke" d="
  M 533.06 271.95
  Q 533.07 271.43 533.23 270.98
  A 0.49 0.49 0.0 0 1 533.94 270.71
  Q 534.08 270.78 534.22 270.85
  Q 534.40 270.94 534.51 270.78
  Q 535.67 269.01 537.57 269.89
  Q 538.03 270.10 538.05 269.60
  L 538.07 269.21
  A 0.32 0.31 0.9 0 0 537.75 268.89
  L 390.01 268.88
  Q 389.58 268.88 389.33 269.23
  L 388.45 270.50"
/>
<path stroke="#a7dab7" vector-effect="non-scaling-stroke" d="
  M 388.45 270.50
  C 371.76 247.01 343.31 259.55 326.54 274.26"
/>
<path stroke="#4cb47c" vector-effect="non-scaling-stroke" d="
  M 326.54 274.26
  Q 326.56 273.12 327.50 272.63
  Q 328.50 272.09 327.48 272.02
  L 320.78 271.56"
/>
<path stroke="#a7dab7" vector-effect="non-scaling-stroke" d="
  M 320.78 271.56
  Q 321.74 270.14 320.22 269.53
  Q 282.99 254.40 256.62 225.11
  C 241.68 208.51 229.16 189.99 217.35 171.13
  A 0.72 0.71 -52.9 0 0 216.06 171.31
  Q 215.92 171.79 216.13 172.46
  Q 218.12 178.71 219.99 184.98
  C 227.16 209.06 237.10 231.66 252.76 251.50"
/>
<path stroke="#4cb47c" vector-effect="non-scaling-stroke" d="
  M 252.76 251.50
  Q 251.52 251.30 250.78 249.54
  Q 250.60 249.12 250.27 249.42
  Q 250.10 249.57 249.85 249.58
  A 0.01 0.01 0.0 0 0 249.84 249.59
  L 249.99 249.85
  Q 250.14 250.08 249.86 250.08
  L 3.48 250.09
  A 1.32 1.32 0.0 0 0 2.19 251.12
  L 1.64 253.51
  Q 1.40 254.60 1.27 253.49
  L 1.14 252.25
  Q 1.11 251.95 0.95 252.31
  Q 0.89 252.45 0.80 252.56
  Q 0.51 252.85 0.45 252.45
  L 0.00 249.70"
/>
<path stroke="#a4d9c4" vector-effect="non-scaling-stroke" d="
  M 320.78 271.56
  L 304.57 287.92
  A 2.53 2.52 -59.0 0 1 302.03 288.56
  Q 297.91 287.30 293.66 284.87
  C 277.97 275.87 264.27 265.60 252.76 251.50"
/>
<path stroke="#a4d9c4" vector-effect="non-scaling-stroke" d="
  M 613.43 248.67
  Q 592.08 262.09 569.69 273.67
  C 563.69 276.77 556.65 279.80 549.44 283.16
  Q 525.96 294.11 493.73 303.99
  Q 448.48 317.87 401.49 323.62
  Q 397.66 324.09 393.73 324.38
  Q 393.24 324.42 393.01 323.98
  C 385.97 310.54 374.77 288.83 357.87 286.08
  C 342.97 283.66 332.84 297.18 323.95 306.99
  Q 323.41 307.59 322.62 307.79
  L 207.91 335.56"
/>
<path stroke="#a2d8ca" vector-effect="non-scaling-stroke" d="
  M 207.91 335.56
  L 181.98 341.83
  Q 181.16 342.03 181.36 341.21
  Q 181.54 340.47 183.12 339.90
  Q 186.57 338.65 190.00 337.37"
/>
<path stroke="#a4d9c4" vector-effect="non-scaling-stroke" d="
  M 190.00 337.37
  Q 248.63 314.73 307.22 291.98
  Q 309.42 291.13 310.39 290.14
  Q 318.37 282.06 326.54 274.26"
/>
<path stroke="#a4d9c4" vector-effect="non-scaling-stroke" d="
  M 388.45 270.50
  Q 396.91 283.47 397.03 299.13
  A 1.05 1.04 87.9 0 0 398.14 300.17
  Q 411.32 299.41 424.08 298.13
  Q 475.33 293.01 523.73 275.49
  Q 530.91 272.89 533.06 271.95"
/>
<path stroke="#47b28f" vector-effect="non-scaling-stroke" d="
  M 768.00 341.64
  Q 762.21 344.99 757.49 345.00
  Q 671.93 345.06 586.38 345.01
  Q 585.03 345.01 581.74 344.80
  C 577.97 344.57 572.59 345.04 570.40 345.04
  Q 553.82 345.10 536.82 344.89"
/>
<path stroke="#a4d9c4" vector-effect="non-scaling-stroke" d="
  M 536.82 344.89
  C 553.12 333.02 568.73 320.48 583.08 306.44
  Q 592.02 297.70 600.88 288.88
  Q 602.98 286.79 603.67 284.74
  Q 604.21 283.16 602.81 284.07
  C 596.88 287.93 590.58 292.65 585.25 296.12
  Q 554.10 316.40 521.28 333.84
  Q 518.30 335.42 515.24 336.86"
/>
<path stroke="#47b28f" vector-effect="non-scaling-stroke" d="
  M 515.24 336.86
  Q 515.11 336.21 515.53 335.79
  Q 515.70 335.63 515.93 335.63
  Q 516.08 335.63 516.24 335.63
  Q 516.38 335.63 516.41 335.50
  Q 516.45 335.33 516.38 335.22
  Q 516.31 335.11 516.08 335.11
  Q 465.66 335.15 415.25 335.07
  Q 413.38 335.07 411.55 334.83
  Q 409.69 334.60 407.90 334.74
  Q 405.76 334.90 403.63 334.80
  C 400.48 334.66 397.29 335.33 393.91 334.34
  Q 393.45 334.21 392.98 334.33
  Q 390.07 335.12 387.50 335.12
  Q 302.62 335.13 217.75 335.00
  Q 215.02 335.00 209.74 336.12
  Q 208.06 336.48 207.91 335.56"
/>
<path stroke="#47b28f" vector-effect="non-scaling-stroke" d="
  M 190.00 337.37
  Q 189.71 336.98 189.61 336.52
  Q 189.53 336.12 189.12 336.12
  L 0.00 336.14"
/>
<path stroke="#a2d8ca" vector-effect="non-scaling-stroke" d="
  M 536.82 344.89
  Q 502.93 368.67 465.59 388.01
  Q 452.97 394.55 440.46 400.82
  A 0.94 0.92 51.4 0 1 439.45 400.70
  C 431.59 394.13 424.76 386.72 417.04 380.25
  A 0.44 0.44 0.0 0 1 417.19 379.50
  C 434.82 373.67 450.37 367.65 468.96 359.43
  C 484.55 352.52 499.95 344.62 515.24 336.86"
/>
<path stroke="#44b19a" vector-effect="non-scaling-stroke" d="
  M 768.00 422.53
  Q 767.82 419.76 767.55 417.01
  C 767.00 411.31 763.87 407.95 760.38 404.03
  A 3.46 3.44 68.8 0 0 757.82 402.89
  Q 564.02 402.89 370.75 402.89
  Q 370.53 402.89 370.42 403.10
  Q 370.26 403.37 370.01 403.20
  Q 369.51 402.87 368.91 403.84"
/>
<path stroke="#a2d8ca" vector-effect="non-scaling-stroke" d="
  M 368.91 403.84
  C 350.06 391.50 333.84 377.51 323.55 357.06
  C 321.87 353.73 320.74 349.94 319.62 346.31
  Q 319.39 345.58 318.71 345.81
  A 0.90 0.89 -7.3 0 0 318.09 346.60
  C 317.82 350.40 317.04 354.21 317.24 357.83
  C 318.14 374.04 325.01 386.79 335.12 399.10"
/>
<path stroke="#44b19a" vector-effect="non-scaling-stroke" d="
  M 335.12 399.10
  L 1.04 399.11
  Q 0.51 399.11 0.41 399.63
  L 0.00 401.76"
/>
<path stroke="#a1d8d0" vector-effect="non-scaling-stroke" d="
  M 368.91 403.84
  Q 381.21 411.74 393.41 419.84
  C 404.65 427.30 414.74 435.24 420.21 447.43
  C 421.68 450.70 422.11 454.50 422.87 458.08"
/>
<path stroke="#9fd7d6" vector-effect="non-scaling-stroke" d="
  M 422.87 458.08
  C 422.11 482.68 406.21 501.79 389.71 518.90"
/>
<path stroke="#9ed6dc" vector-effect="non-scaling-stroke" d="
  M 389.71 518.90
  C 364.31 542.44 336.28 559.39 304.43 574.02"
/>
<path stroke="#9cd6e2" vector-effect="non-scaling-stroke" d="
  M 304.43 574.02
  C 243.22 601.48 179.84 618.60 113.95 631.72"
/>
<path stroke="#9bd5e8" vector-effect="non-scaling-stroke" d="
  M 113.95 631.72
  L 93.28 635.88
  Q 92.35 636.07 92.05 635.17
  L 91.70 634.12"
/>
<path stroke="#9cd6e2" vector-effect="non-scaling-stroke" d="
  M 91.70 634.12
  C 91.94 630.87 94.52 631.21 96.77 630.55
  C 149.81 614.98 202.82 598.41 253.49 576.11"
/>
<path stroke="#9ed6dc" vector-effect="non-scaling-stroke" d="
  M 253.49 576.11
  C 286.49 561.38 317.79 544.49 346.26 522.04
  Q 348.15 520.55 350.49 518.16"
/>
<path stroke="#9fd7d6" vector-effect="non-scaling-stroke" d="
  M 350.49 518.16
  Q 367.09 505.31 380.69 487.66
  Q 385.87 480.95 389.45 474.26
  Q 392.88 467.86 391.39 461.10"
/>
<path stroke="#a1d8d0" vector-effect="non-scaling-stroke" d="
  M 391.39 461.10
  C 389.37 452.04 382.37 443.56 375.41 437.09
  C 364.48 426.94 348.02 413.47 335.12 399.10"
/>
<path stroke="#41afa6" vector-effect="non-scaling-stroke" d="
  M 391.39 461.10
  Q 391.10 461.03 390.94 460.65
  Q 390.76 460.23 390.32 460.33
  Q 390.05 460.40 389.90 460.64
  Q 389.66 461.00 389.23 461.00
  Q 196.67 461.00 4.11 461.00
  C 3.63 461.00 3.08 461.26 2.56 461.35
  Q 2.08 461.43 1.65 461.23
  Q 0.83 460.84 0.00 461.21"
/>
<path stroke="#41afa6" vector-effect="non-scaling-stroke" d="
  M 768.00 461.59
  Q 767.76 462.51 767.04 461.39
  Q 766.76 460.96 766.26 461.11
  Q 763.42 462.01 761.75 461.92
  C 757.24 461.65 751.48 461.88 748.29 461.88
  Q 586.40 461.89 424.51 461.88
  Q 424.48 461.88 424.44 461.87
  Q 424.31 461.83 424.05 461.92
  Q 423.70 462.04 423.73 461.66
  Q 423.96 458.87 422.87 458.08"
/>
<path stroke="#3eaeb3" vector-effect="non-scaling-stroke" d="
  M 768.00 518.36
  Q 767.64 518.16 767.21 518.08
  Q 766.85 518.01 766.55 518.23
  Q 765.99 518.64 765.97 519.24
  Q 765.95 519.97 765.21 519.97
  L 389.64 519.98
  A 0.23 0.23 0.0 0 1 389.59 519.52
  Q 390.10 519.41 389.71 518.90"
/>
<path stroke="#3eaeb3" vector-effect="non-scaling-stroke" d="
  M 350.49 518.16
  L 0.00 518.13"
/>
<path stroke="#3badbf" vector-effect="non-scaling-stroke" d="
  M 253.49 576.11
  L 0.00 576.11"
/>
<path stroke="#3badbf" vector-effect="non-scaling-stroke" d="
  M 768.00 576.11
  Q 537.88 576.10 307.75 576.22
  Q 302.11 576.22 304.43 574.02"
/>
<path stroke="#38acca" vector-effect="non-scaling-stroke" d="
  M 768.00 634.60
  Q 767.69 634.82 767.50 633.58
  Q 767.40 632.95 766.77 632.95
  L 114.91 632.95
  A 0.80 0.79 -8.4 0 1 114.15 632.39
  L 113.95 631.72"
/>
<path stroke="#38acca" vector-effect="non-scaling-stroke" d="
  M 91.70 634.12
  Q 90.99 634.37 90.71 632.70
  Q 90.62 632.13 90.04 632.13
  L 29.11 631.78
  Q 28.70 631.78 28.33 631.95
  Q 28.06 632.08 27.75 632.09
  Q 15.02 632.11 2.29 632.12
  Q 1.77 632.12 1.43 631.74
  Q 0.48 630.68 0.75 629.27
  Q 0.78 629.10 0.69 629.08
  Q 0.64 629.07 0.58 629.06
  Q 0.50 629.05 0.52 629.16
  Q 0.78 631.01 0.00 631.01"
/>
<path stroke="#34aad9" vector-effect="non-scaling-stroke" d="
  M 768.00 699.69
  Q 767.16 698.98 767.41 696.90
  Q 767.43 696.74 767.27 696.74
  Q 767.07 696.74 766.87 696.74
  A 0.20 0.20 0.0 0 1 766.80 696.36
  Q 767.88 695.94 766.88 695.55
  A 0.15 0.15 0.0 0 1 766.91 695.27
  Q 767.27 695.20 767.34 695.09
  Q 767.52 694.80 767.21 695.03
  Q 767.10 695.12 767.00 695.12
  Q 384.88 695.12 2.77 695.12
  Q 1.45 695.12 0.94 694.51
  Q 0.23 693.67 0.70 692.26
  Q 0.72 692.21 0.75 692.18
  Q 0.86 692.11 0.66 692.12
  A 0.09 0.07 -2.8 0 0 0.57 692.20
  Q 0.73 693.23 0.57 694.31
  Q 0.38 695.62 0.21 694.31
  L 0.00 692.74"
/>
</g>
<path fill="#57b84e" d="
  M 0.00 0.00
  L 768.00 0.00
  L 768.00 86.48
  L 767.35 93.81
  Q 767.29 94.44 767.13 93.87
  Q 767.09 93.75 767.17 93.60
  A 0.49 0.49 0.0 0 0 766.74 92.88
  L 739.21 92.88
  A 0.82 0.75 -28.9 0 1 738.84 92.79
  Q 738.56 92.66 738.25 92.66
  Q 393.00 92.63 47.75 92.63
  C 33.55 92.63 16.64 93.05 1.08 92.82
  A 0.32 0.31 21.1 0 0 0.82 92.93
  Q 0.72 93.04 0.61 93.14
  Q 0.32 93.37 0.36 93.01
  Q 0.63 90.53 0.00 88.36
  L 0.00 0.00
  Z"
/>
<path fill="#52b661" d="
  M 768.00 86.48
  L 768.00 153.49
  L 767.20 154.54
  Q 767.12 154.64 767.25 154.68
  Q 767.37 154.71 767.51 154.76
  A 0.85 0.56 -24.4 0 1 766.75 155.96
  L 0.93 155.96
  Q 0.81 155.96 0.75 156.06
  Q 0.65 156.21 0.51 156.19
  Q 0.34 156.17 0.33 156.00
  L 0.00 150.98
  L 0.00 88.36
  Q 0.63 90.53 0.36 93.01
  Q 0.32 93.37 0.61 93.14
  Q 0.72 93.04 0.82 92.93
  A 0.32 0.31 21.1 0 1 1.08 92.82
  C 16.64 93.05 33.55 92.63 47.75 92.63
  Q 393.00 92.63 738.25 92.66
  Q 738.56 92.66 738.84 92.79
  A 0.82 0.75 -28.9 0 0 739.21 92.88
  L 766.74 92.88
  A 0.49 0.49 0.0 0 1 767.17 93.60
  Q 767.09 93.75 767.13 93.87
  Q 767.29 94.44 767.35 93.81
  L 768.00 86.48
  Z"
/>
<path fill="#4fb56e" d="
  M 0.00 150.98
  L 0.33 156.00
  Q 0.34 156.17 0.51 156.19
  Q 0.65 156.21 0.75 156.06
  Q 0.81 155.96 0.93 155.96
  L 766.75 155.96
  A 0.85 0.56 -24.4 0 0 767.51 154.76
  Q 767.37 154.71 767.25 154.68
  Q 767.12 154.64 767.20 154.54
  L 768.00 153.49
  L 768.00 241.86
  L 767.45 249.16
  A 0.45 0.45 0.0 0 1 766.60 249.32
  Q 766.34 248.76 765.90 248.38
  Q 765.59 248.10 765.18 248.10
  Q 752.71 248.10 740.25 248.15
  Q 739.88 248.15 739.55 248.02
  Q 739.16 247.86 738.74 247.86
  L 656.50 247.86
  A 0.32 0.28 -62.9 0 0 656.30 247.94
  Q 656.18 248.05 656.00 248.05
  Q 636.89 248.11 617.78 248.11
  Q 617.69 248.11 616.75 248.00
  Q 615.69 247.88 615.00 248.80
  A 1.04 1.01 -80.5 0 1 614.55 249.13
  Q 613.22 249.60 613.43 248.67
  L 669.49 211.59
  Q 670.38 211.00 669.31 210.90
  Q 668.56 210.82 667.32 211.37
  C 643.20 222.20 619.38 233.66 595.47 244.96
  C 575.07 254.60 554.30 264.29 533.06 271.95
  Q 533.07 271.43 533.23 270.98
  A 0.49 0.49 0.0 0 1 533.94 270.71
  Q 534.08 270.78 534.22 270.85
  Q 534.40 270.94 534.51 270.78
  Q 535.67 269.01 537.57 269.89
  Q 538.03 270.10 538.05 269.60
  L 538.07 269.21
  A 0.32 0.31 0.9 0 0 537.75 268.89
  L 390.01 268.88
  Q 389.58 268.88 389.33 269.23
  L 388.45 270.50
  C 371.76 247.01 343.31 259.55 326.54 274.26
  Q 326.56 273.12 327.50 272.63
  Q 328.50 272.09 327.48 272.02
  L 320.78 271.56
  Q 321.74 270.14 320.22 269.53
  Q 282.99 254.40 256.62 225.11
  C 241.68 208.51 229.16 189.99 217.35 171.13
  A 0.72 0.71 -52.9 0 0 216.06 171.31
  Q 215.92 171.79 216.13 172.46
  Q 218.12 178.71 219.99 184.98
  C 227.16 209.06 237.10 231.66 252.76 251.50
  Q 251.52 251.30 250.78 249.54
  Q 250.60 249.12 250.27 249.42
  Q 250.10 249.57 249.85 249.58
  A 0.01 0.01 0.0 0 0 249.84 249.59
  L 249.99 249.85
  Q 250.14 250.08 249.86 250.08
  L 3.48 250.09
  A 1.32 1.32 0.0 0 0 2.19 251.12
  L 1.64 253.51
  Q 1.40 254.60 1.27 253.49
  L 1.14 252.25
  Q 1.11 251.95 0.95 252.31
  Q 0.89 252.45 0.80 252.56
  Q 0.51 252.85 0.45 252.45
  L 0.00 249.70
  L 0.00 150.98
  Z"
/>
<path fill="#ffffff" d="
  M 320.78 271.56
  L 304.57 287.92
  A 2.53 2.52 -59.0 0 1 302.03 288.56
  Q 297.91 287.30 293.66 284.87
  C 277.97 275.87 264.27 265.60 252.76 251.50
  C 237.10 231.66 227.16 209.06 219.99 184.98
  Q 218.12 178.71 216.13 172.46
  Q 215.92 171.79 216.06 171.31
  A 0.72 0.71 -52.9 0 1 217.35 171.13
  C 229.16 189.99 241.68 208.51 256.62 225.11
  Q 282.99 254.40 320.22 269.53
  Q 321.74 270.14 320.78 271.56
  Z"
/>
<path fill="#ffffff" d="
  M 613.43 248.67
  Q 592.08 262.09 569.69 273.67
  C 563.69 276.77 556.65 279.80 549.44 283.16
  Q 525.96 294.11 493.73 303.99
  Q 448.48 317.87 401.49 323.62
  Q 397.66 324.09 393.73 324.38
  Q 393.24 324.42 393.01 323.98
  C 385.97 310.54 374.77 288.83 357.87 286.08
  C 342.97 283.66 332.84 297.18 323.95 306.99
  Q 323.41 307.59 322.62 307.79
  L 207.91 335.56
  L 181.98 341.83
  Q 181.16 342.03 181.36 341.21
  Q 181.54 340.47 183.12 339.90
  Q 186.57 338.65 190.00 337.37
  Q 248.63 314.73 307.22 291.98
  Q 309.42 291.13 310.39 290.14
  Q 318.37 282.06 326.54 274.26
  C 343.31 259.55 371.76 247.01 388.45 270.50
  Q 396.91 283.47 397.03 299.13
  A 1.05 1.04 87.9 0 0 398.14 300.17
  Q 411.32 299.41 424.08 298.13
  Q 475.33 293.01 523.73 275.49
  Q 530.91 272.89 533.06 271.95
  C 554.30 264.29 575.07 254.60 595.47 244.96
  C 619.38 233.66 643.20 222.20 667.32 211.37
  Q 668.56 210.82 669.31 210.90
  Q 670.38 211.00 669.49 211.59
  L 613.43 248.67
  Z"
/>
<path fill="#48b289" d="
  M 768.00 241.86
  L 768.00 341.64
  Q 762.21 344.99 757.49 345.00
  Q 671.93 345.06 586.38 345.01
  Q 585.03 345.01 581.74 344.80
  C 577.97 344.57 572.59 345.04 570.40 345.04
  Q 553.82 345.10 536.82 344.89
  C 553.12 333.02 568.73 320.48 583.08 306.44
  Q 592.02 297.70 600.88 288.88
  Q 602.98 286.79 603.67 284.74
  Q 604.21 283.16 602.81 284.07
  C 596.88 287.93 590.58 292.65 585.25 296.12
  Q 554.10 316.40 521.28 333.84
  Q 518.30 335.42 515.24 336.86
  Q 515.11 336.21 515.53 335.79
  Q 515.70 335.63 515.93 335.63
  Q 516.08 335.63 516.24 335.63
  Q 516.38 335.63 516.41 335.50
  Q 516.45 335.33 516.38 335.22
  Q 516.31 335.11 516.08 335.11
  Q 465.66 335.15 415.25 335.07
  Q 413.38 335.07 411.55 334.83
  Q 409.69 334.60 407.90 334.74
  Q 405.76 334.90 403.63 334.80
  C 400.48 334.66 397.29 335.33 393.91 334.34
  Q 393.45 334.21 392.98 334.33
  Q 390.07 335.12 387.50 335.12
  Q 302.62 335.13 217.75 335.00
  Q 215.02 335.00 209.74 336.12
  Q 208.06 336.48 207.91 335.56
  L 322.62 307.79
  Q 323.41 307.59 323.95 306.99
  C 332.84 297.18 342.97 283.66 357.87 286.08
  C 374.77 288.83 385.97 310.54 393.01 323.98
  Q 393.24 324.42 393.73 324.38
  Q 397.66 324.09 401.49 323.62
  Q 448.48 317.87 493.73 303.99
  Q 525.96 294.11 549.44 283.16
  C 556.65 279.80 563.69 276.77 569.69 273.67
  Q 592.08 262.09 613.43 248.67
  Q 613.22 249.60 614.55 249.13
  A 1.04 1.01 -80.5 0 0 615.00 248.80
  Q 615.69 247.88 616.75 248.00
  Q 617.69 248.11 617.78 248.11
  Q 636.89 248.11 656.00 248.05
  Q 656.18 248.05 656.30 247.94
  A 0.32 0.28 -62.9 0 1 656.50 247.86
  L 738.74 247.86
  Q 739.16 247.86 739.55 248.02
  Q 739.88 248.15 740.25 248.15
  Q 752.71 248.10 765.18 248.10
  Q 765.59 248.10 765.90 248.38
  Q 766.34 248.76 766.60 249.32
  A 0.45 0.45 0.0 0 0 767.45 249.16
  L 768.00 241.86
  Z"
/>
<path fill="#48b289" d="
  M 252.76 251.50
  C 264.27 265.60 277.97 275.87 293.66 284.87
  Q 297.91 287.30 302.03 288.56
  A 2.53 2.52 -59.0 0 0 304.57 287.92
  L 320.78 271.56
  L 327.48 272.02
  Q 328.50 272.09 327.50 272.63
  Q 326.56 273.12 326.54 274.26
  Q 318.37 282.06 310.39 290.14
  Q 309.42 291.13 307.22 291.98
  Q 248.63 314.73 190.00 337.37
  Q 189.71 336.98 189.61 336.52
  Q 189.53 336.12 189.12 336.12
  L 0.00 336.14
  L 0.00 249.70
  L 0.45 252.45
  Q 0.51 252.85 0.80 252.56
  Q 0.89 252.45 0.95 252.31
  Q 1.11 251.95 1.14 252.25
  L 1.27 253.49
  Q 1.40 254.60 1.64 253.51
  L 2.19 251.12
  A 1.32 1.32 0.0 0 1 3.48 250.09
  L 249.86 250.08
  Q 250.14 250.08 249.99 249.85
  L 249.84 249.59
  A 0.01 0.01 0.0 0 1 249.85 249.58
  Q 250.10 249.57 250.27 249.42
  Q 250.60 249.12 250.78 249.54
  Q 251.52 251.30 252.76 251.50
  Z"
/>
<path fill="#48b289" d="
  M 533.06 271.95
  Q 530.91 272.89 523.73 275.49
  Q 475.33 293.01 424.08 298.13
  Q 411.32 299.41 398.14 300.17
  A 1.05 1.04 87.9 0 1 397.03 299.13
  Q 396.91 283.47 388.45 270.50
  L 389.33 269.23
  Q 389.58 268.88 390.01 268.88
  L 537.75 268.89
  A 0.32 0.31 0.9 0 1 538.07 269.21
  L 538.05 269.60
  Q 538.03 270.10 537.57 269.89
  Q 535.67 269.01 534.51 270.78
  Q 534.40 270.94 534.22 270.85
  Q 534.08 270.78 533.94 270.71
  A 0.49 0.49 0.0 0 0 533.23 270.98
  Q 533.07 271.43 533.06 271.95
  Z"
/>
<path fill="#ffffff" d="
  M 536.82 344.89
  Q 502.93 368.67 465.59 388.01
  Q 452.97 394.55 440.46 400.82
  A 0.94 0.92 51.4 0 1 439.45 400.70
  C 431.59 394.13 424.76 386.72 417.04 380.25
  A 0.44 0.44 0.0 0 1 417.19 379.50
  C 434.82 373.67 450.37 367.65 468.96 359.43
  C 484.55 352.52 499.95 344.62 515.24 336.86
  Q 518.30 335.42 521.28 333.84
  Q 554.10 316.40 585.25 296.12
  C 590.58 292.65 596.88 287.93 602.81 284.07
  Q 604.21 283.16 603.67 284.74
  Q 602.98 286.79 600.88 288.88
  Q 592.02 297.70 583.08 306.44
  C 568.73 320.48 553.12 333.02 536.82 344.89
  Z"
/>
<path fill="#45b194" d="
  M 515.24 336.86
  C 499.95 344.62 484.55 352.52 468.96 359.43
  C 450.37 367.65 434.82 373.67 417.19 379.50
  A 0.44 0.44 0.0 0 0 417.04 380.25
  C 424.76 386.72 431.59 394.13 439.45 400.70
  A 0.94 0.92 51.4 0 0 440.46 400.82
  Q 452.97 394.55 465.59 388.01
  Q 502.93 368.67 536.82 344.89
  Q 553.82 345.10 570.40 345.04
  C 572.59 345.04 577.97 344.57 581.74 344.80
  Q 585.03 345.01 586.38 345.01
  Q 671.93 345.06 757.49 345.00
  Q 762.21 344.99 768.00 341.64
  L 768.00 422.53
  Q 767.82 419.76 767.55 417.01
  C 767.00 411.31 763.87 407.95 760.38 404.03
  A 3.46 3.44 68.8 0 0 757.82 402.89
  Q 564.02 402.89 370.75 402.89
  Q 370.53 402.89 370.42 403.10
  Q 370.26 403.37 370.01 403.20
  Q 369.51 402.87 368.91 403.84
  C 350.06 391.50 333.84 377.51 323.55 357.06
  C 321.87 353.73 320.74 349.94 319.62 346.31
  Q 319.39 345.58 318.71 345.81
  A 0.90 0.89 -7.3 0 0 318.09 346.60
  C 317.82 350.40 317.04 354.21 317.24 357.83
  C 318.14 374.04 325.01 386.79 335.12 399.10
  L 1.04 399.11
  Q 0.51 399.11 0.41 399.63
  L 0.00 401.76
  L 0.00 336.14
  L 189.12 336.12
  Q 189.53 336.12 189.61 336.52
  Q 189.71 336.98 190.00 337.37
  Q 186.57 338.65 183.12 339.90
  Q 181.54 340.47 181.36 341.21
  Q 181.16 342.03 181.98 341.83
  L 207.91 335.56
  Q 208.06 336.48 209.74 336.12
  Q 215.02 335.00 217.75 335.00
  Q 302.62 335.13 387.50 335.12
  Q 390.07 335.12 392.98 334.33
  Q 393.45 334.21 393.91 334.34
  C 397.29 335.33 400.48 334.66 403.63 334.80
  Q 405.76 334.90 407.90 334.74
  Q 409.69 334.60 411.55 334.83
  Q 413.38 335.07 415.25 335.07
  Q 465.66 335.15 516.08 335.11
  Q 516.31 335.11 516.38 335.22
  Q 516.45 335.33 516.41 335.50
  Q 516.38 335.63 516.24 335.63
  Q 516.08 335.63 515.93 335.63
  Q 515.70 335.63 515.53 335.79
  Q 515.11 336.21 515.24 336.86
  Z"
/>
<path fill="#ffffff" d="
  M 368.91 403.84
  Q 381.21 411.74 393.41 419.84
  C 404.65 427.30 414.74 435.24 420.21 447.43
  C 421.68 450.70 422.11 454.50 422.87 458.08
  C 422.11 482.68 406.21 501.79 389.71 518.90
  C 364.31 542.44 336.28 559.39 304.43 574.02
  C 243.22 601.48 179.84 618.60 113.95 631.72
  L 93.28 635.88
  Q 92.35 636.07 92.05 635.17
  L 91.70 634.12
  C 91.94 630.87 94.52 631.21 96.77 630.55
  C 149.81 614.98 202.82 598.41 253.49 576.11
  C 286.49 561.38 317.79 544.49 346.26 522.04
  Q 348.15 520.55 350.49 518.16
  Q 367.09 505.31 380.69 487.66
  Q 385.87 480.95 389.45 474.26
  Q 392.88 467.86 391.39 461.10
  C 389.37 452.04 382.37 443.56 375.41 437.09
  C 364.48 426.94 348.02 413.47 335.12 399.10
  C 325.01 386.79 318.14 374.04 317.24 357.83
  C 317.04 354.21 317.82 350.40 318.09 346.60
  A 0.90 0.89 -7.3 0 1 318.71 345.81
  Q 319.39 345.58 319.62 346.31
  C 320.74 349.94 321.87 353.73 323.55 357.06
  C 333.84 377.51 350.06 391.50 368.91 403.84
  Z"
/>
<path fill="#42b0a0" d="
  M 335.12 399.10
  C 348.02 413.47 364.48 426.94 375.41 437.09
  C 382.37 443.56 389.37 452.04 391.39 461.10
  Q 391.10 461.03 390.94 460.65
  Q 390.76 460.23 390.32 460.33
  Q 390.05 460.40 389.90 460.64
  Q 389.66 461.00 389.23 461.00
  Q 196.67 461.00 4.11 461.00
  C 3.63 461.00 3.08 461.26 2.56 461.35
  Q 2.08 461.43 1.65 461.23
  Q 0.83 460.84 0.00 461.21
  L 0.00 401.76
  L 0.41 399.63
  Q 0.51 399.11 1.04 399.11
  L 335.12 399.10
  Z"
/>
<path fill="#42b0a0" d="
  M 768.00 422.53
  L 768.00 461.59
  Q 767.76 462.51 767.04 461.39
  Q 766.76 460.96 766.26 461.11
  Q 763.42 462.01 761.75 461.92
  C 757.24 461.65 751.48 461.88 748.29 461.88
  Q 586.40 461.89 424.51 461.88
  Q 424.48 461.88 424.44 461.87
  Q 424.31 461.83 424.05 461.92
  Q 423.70 462.04 423.73 461.66
  Q 423.96 458.87 422.87 458.08
  C 422.11 454.50 421.68 450.70 420.21 447.43
  C 414.74 435.24 404.65 427.30 393.41 419.84
  Q 381.21 411.74 368.91 403.84
  Q 369.51 402.87 370.01 403.20
  Q 370.26 403.37 370.42 403.10
  Q 370.53 402.89 370.75 402.89
  Q 564.02 402.89 757.82 402.89
  A 3.46 3.44 68.8 0 1 760.38 404.03
  C 763.87 407.95 767.00 411.31 767.55 417.01
  Q 767.82 419.76 768.00 422.53
  Z"
/>
<path fill="#3faeac" d="
  M 768.00 461.59
  L 768.00 518.36
  Q 767.64 518.16 767.21 518.08
  Q 766.85 518.01 766.55 518.23
  Q 765.99 518.64 765.97 519.24
  Q 765.95 519.97 765.21 519.97
  L 389.64 519.98
  A 0.23 0.23 0.0 0 1 389.59 519.52
  Q 390.10 519.41 389.71 518.90
  C 406.21 501.79 422.11 482.68 422.87 458.08
  Q 423.96 458.87 423.73 461.66
  Q 423.70 462.04 424.05 461.92
  Q 424.31 461.83 424.44 461.87
  Q 424.48 461.88 424.51 461.88
  Q 586.40 461.89 748.29 461.88
  C 751.48 461.88 757.24 461.65 761.75 461.92
  Q 763.42 462.01 766.26 461.11
  Q 766.76 460.96 767.04 461.39
  Q 767.76 462.51 768.00 461.59
  Z"
/>
<path fill="#3faeac" d="
  M 391.39 461.10
  Q 392.88 467.86 389.45 474.26
  Q 385.87 480.95 380.69 487.66
  Q 367.09 505.31 350.49 518.16
  L 0.00 518.13
  L 0.00 461.21
  Q 0.83 460.84 1.65 461.23
  Q 2.08 461.43 2.56 461.35
  C 3.08 461.26 3.63 461.00 4.11 461.00
  Q 196.67 461.00 389.23 461.00
  Q 389.66 461.00 389.90 460.64
  Q 390.05 460.40 390.32 460.33
  Q 390.76 460.23 390.94 460.65
  Q 391.10 461.03 391.39 461.10
  Z"
/>
<path fill="#3cadb9" d="
  M 0.00 518.13
  L 350.49 518.16
  Q 348.15 520.55 346.26 522.04
  C 317.79 544.49 286.49 561.38 253.49 576.11
  L 0.00 576.11
  L 0.00 518.13
  Z"
/>
<path fill="#3cadb9" d="
  M 768.00 518.36
  L 768.00 576.11
  Q 537.88 576.10 307.75 576.22
  Q 302.11 576.22 304.43 574.02
  C 336.28 559.39 364.31 542.44 389.71 518.90
  Q 390.10 519.41 389.59 519.52
  A 0.23 0.23 0.0 0 0 389.64 519.98
  L 765.21 519.97
  Q 765.95 519.97 765.97 519.24
  Q 765.99 518.64 766.55 518.23
  Q 766.85 518.01 767.21 518.08
  Q 767.64 518.16 768.00 518.36
  Z"
/>
<path fill="#39acc4" d="
  M 304.43 574.02
  Q 302.11 576.22 307.75 576.22
  Q 537.88 576.10 768.00 576.11
  L 768.00 634.60
  Q 767.69 634.82 767.50 633.58
  Q 767.40 632.95 766.77 632.95
  L 114.91 632.95
  A 0.80 0.79 -8.4 0 1 114.15 632.39
  L 113.95 631.72
  C 179.84 618.60 243.22 601.48 304.43 574.02
  Z"
/>
<path fill="#39acc4" d="
  M 0.00 576.11
  L 253.49 576.11
  C 202.82 598.41 149.81 614.98 96.77 630.55
  C 94.52 631.21 91.94 630.87 91.70 634.12
  Q 90.99 634.37 90.71 632.70
  Q 90.62 632.13 90.04 632.13
  L 29.11 631.78
  Q 28.70 631.78 28.33 631.95
  Q 28.06 632.08 27.75 632.09
  Q 15.02 632.11 2.29 632.12
  Q 1.77 632.12 1.43 631.74
  Q 0.48 630.68 0.75 629.27
  Q 0.78 629.10 0.69 629.08
  Q 0.64 629.07 0.58 629.06
  Q 0.50 629.05 0.52 629.16
  Q 0.78 631.01 0.00 631.01
  L 0.00 576.11
  Z"
/>
<path fill="#36abd0" d="
  M 91.70 634.12
  L 92.05 635.17
  Q 92.35 636.07 93.28 635.88
  L 113.95 631.72
  L 114.15 632.39
  A 0.80 0.79 -8.4 0 0 114.91 632.95
  L 766.77 632.95
  Q 767.40 632.95 767.50 633.58
  Q 767.69 634.82 768.00 634.60
  L 768.00 699.69
  Q 767.16 698.98 767.41 696.90
  Q 767.43 696.74 767.27 696.74
  Q 767.07 696.74 766.87 696.74
  A 0.20 0.20 0.0 0 1 766.80 696.36
  Q 767.88 695.94 766.88 695.55
  A 0.15 0.15 0.0 0 1 766.91 695.27
  Q 767.27 695.20 767.34 695.09
  Q 767.52 694.80 767.21 695.03
  Q 767.10 695.12 767.00 695.12
  Q 384.88 695.12 2.77 695.12
  Q 1.45 695.12 0.94 694.51
  Q 0.23 693.67 0.70 692.26
  Q 0.72 692.21 0.75 692.18
  Q 0.86 692.11 0.66 692.12
  A 0.09 0.07 -2.8 0 0 0.57 692.20
  Q 0.73 693.23 0.57 694.31
  Q 0.38 695.62 0.21 694.31
  L 0.00 692.74
  L 0.00 631.01
  Q 0.78 631.01 0.52 629.16
  Q 0.50 629.05 0.58 629.06
  Q 0.64 629.07 0.69 629.08
  Q 0.78 629.10 0.75 629.27
  Q 0.48 630.68 1.43 631.74
  Q 1.77 632.12 2.29 632.12
  Q 15.02 632.11 27.75 632.09
  Q 28.06 632.08 28.33 631.95
  Q 28.70 631.78 29.11 631.78
  L 90.04 632.13
  Q 90.62 632.13 90.71 632.70
  Q 90.99 634.37 91.70 634.12
  Z"
/>
<path fill="#32a9e1" d="
  M 768.00 699.69
  L 768.00 768.00
  L 0.00 768.00
  L 0.00 692.74
  L 0.21 694.31
  Q 0.38 695.62 0.57 694.31
  Q 0.73 693.23 0.57 692.20
  A 0.09 0.07 -2.8 0 1 0.66 692.12
  Q 0.86 692.11 0.75 692.18
  Q 0.72 692.21 0.70 692.26
  Q 0.23 693.67 0.94 694.51
  Q 1.45 695.12 2.77 695.12
  Q 384.88 695.12 767.00 695.12
  Q 767.10 695.12 767.21 695.03
  Q 767.52 694.80 767.34 695.09
  Q 767.27 695.20 766.91 695.27
  A 0.15 0.15 0.0 0 0 766.88 695.55
  Q 767.88 695.94 766.80 696.36
  A 0.20 0.20 0.0 0 0 766.87 696.74
  Q 767.07 696.74 767.27 696.74
  Q 767.43 696.74 767.41 696.90
  Q 767.16 698.98 768.00 699.69
  Z"
/>
</svg>
