<?xml version="1.0"?>
<!DOCTYPE svg PUBLIC "-//W3C//DTD SVG 1.0//EN" "http://www.w3.org/TR/2001/REC-SVG-20010904/DTD/svg10.dtd">
<svg xmlns="http://www.w3.org/2000/svg" xmlns:xlink="http://www.w3.org/1999/xlink" xmlns:sodipodi="http://sodipodi.sourceforge.net/DTD/sodipodi-0.dtd" xmlns:inkscape="http://www.inkscape.org/namespaces/inkscape" xmlns:realworld="http://www.rw-designer.com/export-svg" width="768px" height="768px">
  <defs>
    <linearGradient id="G0" x1="46.1958%" x2="46.926%" y1="29.8063%" y2="93.6033%">
      <stop offset="0%" stop-color="#58b848" />
      <stop offset="100%" stop-color="#31a9e5" />
    </linearGradient>
  </defs>
  <g display="none" inkscape:groupmode="layer" inkscape:label="layer 0">
    <rect fill="url(#G0)" height="769" width="769" x="-1" y="0" />
  </g>
  <g>
    <path d="M 325.958 538.356C 329.658 535.606 333.203 533.167 336.893 530.425C 342.122 526.381 347.206 522.641 352.57 518.675C 359.172 512.184 365.495 505.921 371.967 499.348C 375.662 494.94 379.208 490.839 382.896 486.43C 385.272 482.975 387.506 479.828 389.786 476.339C 394.18 469.652 393.063 463.049 390.437 456.178C 387.383 451.88 384.644 447.796 381.678 443.43C 378.186 440.16 374.921 437.171 371.348 434.032C 366.243 429.313 361.445 424.744 356.343 420.029C 349.932 414.002 343.826 408.121 337.42 402.102C 334.05 397.552 330.979 393.14 327.685 388.44C 324.63 380.704 321.8 373.255 318.901 365.403C 318.877 360.279 318.92 355.559 318.899 350.419C 319.089 349.018 319.342 348.036 319.826 346.164C 320.787 348.164 321.311 349.254 321.945 351.046C 323.998 355.512 325.94 359.276 327.94 363.398C 332.293 369.518 336.588 375.279 340.883 381.04C 349.964 391.086 360.667 399.095 372.604 406.06C 380.083 410.991 387.204 415.863 394.663 420.784C 400.759 425.473 406.517 430.113 412.577 434.895C 415.347 438.92 417.815 442.802 420.58 446.86C 421.662 450.549 422.448 454.063 423.556 457.806C 423.597 461.737 423.315 465.438 423.1 469.57C 421.112 475.405 419.058 480.809 416.942 486.587C 413.673 491.418 410.466 495.875 407.212 500.667C 403.838 505.116 400.511 509.23 397.033 513.653C 393.647 517.092 390.411 520.223 387.028 523.657C 382.65 527.421 378.418 530.881 374.037 534.649C 367.306 539.448 360.744 543.969 354.132 548.416C 351.56 550.146 348.876 551.711 346.066 553.654C 339.66 557.413 333.432 560.869 327.045 564.641C 319.371 568.394 311.856 571.832 304.152 575.574C 285.759 583.006 267.555 590.135 249.157 597.57C 239.785 600.671 230.604 603.462 221.426 606.26C 217.075 607.586 212.728 608.925 208.172 610.568C 198.052 613.378 188.143 615.889 178.226 618.374C 174.293 619.359 170.347 620.289 166.186 621.561C 156.069 624.037 146.188 626.273 136.272 628.337C 122.08 631.292 107.862 634.121 92.5607 636.055C 93.4667 634.722 94.1111 632.565 95.3188 632.181C 108.54 627.978 121.847 624.045 135.14 620.068C 135.923 619.834 136.781 619.851 137.82 619.437C 155.541 613.46 173.058 607.834 190.544 602.111C 195.65 600.44 200.666 598.493 205.918 596.358C 216.21 592.313 226.307 588.581 236.407 584.856C 237.476 584.462 238.56 584.108 239.837 583.43C 252.774 577.386 265.511 571.646 278.548 565.684C 284.688 562.36 290.529 559.259 296.684 555.995C 306.6 550.111 316.202 544.39 325.958 538.356 z" fill="#ffffff" fill-rule="evenodd" />
    <path d="M 661.029 218.653C 651.651 225.084 642.422 231.208 633.039 237.644C 624.515 243.219 616.147 248.485 607.772 253.74C 605.434 255.207 603.076 256.642 600.438 258.32C 590.172 264.017 580.193 269.486 569.838 275.074C 553.091 282.218 536.722 289.241 519.768 296.622C 503.49 301.801 487.863 306.858 472.079 311.362C 461.822 314.289 451.334 316.411 440.525 318.936C 427.989 320.859 415.886 322.789 403.762 324.583C 400.687 325.038 397.416 325.657 394.494 325.017C 393.109 324.714 392.383 321.594 391.272 319.805C 387.485 313.707 384.214 307.189 379.751 301.629C 363.679 281.608 347.665 282.251 331.54 300.813C 328.938 303.808 326.158 307.832 322.752 308.75C 302.303 314.259 281.641 318.977 261.062 324.006C 247.663 327.28 234.283 330.632 220.895 333.949C 209.973 336.435 199.049 338.914 188.13 341.414C 186.277 341.838 184.443 342.353 182.28 341.999C 187.634 339.722 192.989 337.445 198.671 335.001C 211.171 330.274 223.347 325.725 235.514 321.151C 240.239 319.375 244.944 317.544 249.847 315.43C 259.91 311.439 269.809 307.821 279.652 304.057C 288.146 300.809 296.424 296.895 305.094 294.244C 310.274 292.66 313.215 288.992 317.214 285.264C 325.453 278.248 333.25 271.678 341.414 265.052C 343.094 264.356 344.386 263.666 345.724 263.082C 359.884 256.898 373.549 255.739 386.097 267.417C 394.703 277.029 397.513 288.454 398.339 301.337C 403.142 300.875 407.68 300.421 412.222 300.003C 423.35 298.978 434.572 298.556 445.589 296.829C 467.999 293.317 490.141 288.373 511.608 280.918C 523.875 276.658 535.91 271.733 548.429 267.061C 561.556 261.379 574.302 255.742 587.414 250.051C 596.852 245.609 605.925 241.222 615.364 236.891C 624.764 232.551 633.799 228.153 642.834 223.756C 650.283 220.508 657.732 217.259 665.742 214.157C 666.43 214.429 666.558 214.556 666.685 214.682C 664.849 215.903 663.013 217.124 661.029 218.653 z" fill="#ffffff" fill-rule="evenodd" />
    <path d="M 255.015 222.691C 259.206 227.254 263.245 231.511 267.731 236.213C 273.77 241.142 279.362 245.626 285.101 250.419C 293.481 255.52 301.715 260.311 310.128 265.408C 314.294 267.588 318.281 269.463 322.692 271.537C 318.646 275.814 315.27 279.383 311.893 282.953C 310.924 283.811 309.743 284.522 309.023 285.554C 305.809 290.163 302.051 290.482 297.351 287.22C 289.604 282.45 282.21 277.731 274.465 272.985C 269.293 268.361 264.471 263.766 259.345 259.027C 255.598 254.355 252.156 249.829 248.418 245.133C 245.654 241.078 243.188 237.192 240.422 233.135C 237.995 228.424 235.867 223.884 233.431 219.154C 231.33 214.427 229.536 209.889 227.432 205.158C 225.807 201.201 224.493 197.438 223.006 193.338C 221.886 189.918 220.939 186.835 219.912 183.376C 218.946 180.223 218.06 177.446 217.003 174.335C 217.183 173.377 217.532 172.754 217.882 172.13C 218.35 172.656 218.819 173.182 219.583 173.872C 221.347 176.591 222.815 179.146 224.581 181.869C 227.203 185.482 229.527 188.927 232.009 192.685C 234.866 196.914 237.566 200.831 240.573 204.893C 245.541 210.82 250.202 216.603 255.015 222.691 z" fill="#ffffff" fill-rule="evenodd" />
    <path d="M 666.115 214.11C 667.203 213.162 668.479 212.407 669.755 211.651C 669.936 211.964 670.116 212.277 670.297 212.59C 669.265 213.155 668.233 213.72 666.943 214.483C 666.558 214.555 666.43 214.429 666.115 214.11 z" fill="#ffffff" fill-rule="evenodd" />
    <path d="M 602.175 288.585C 596.115 294.705 590.187 300.528 584.112 306.656C 575.771 314.071 567.576 321.182 559.214 328.585C 551.456 334.697 543.865 340.515 536.122 346.645C 526.978 352.856 517.987 358.757 508.793 364.911C 499.953 370.08 491.314 374.992 482.681 379.916C 481.542 380.566 480.435 381.272 478.939 382.067C 465.808 388.839 453.052 395.496 439.856 402.383C 433.793 396.619 427.85 390.926 421.849 385.295C 420.422 383.956 418.8 382.826 417.301 380.978C 431.6 374.94 445.866 369.524 460.498 364.052C 469.856 359.781 478.848 355.565 487.84 351.35C 497.837 346.454 507.833 341.559 518.37 336.323C 524.12 333.266 529.399 330.667 534.521 327.792C 538.186 325.735 541.643 323.309 545.552 321.015C 557.578 313.888 569.243 306.794 580.909 299.7C 588.312 294.84 595.717 289.98 603.875 284.625C 603.175 286.26 602.74 287.274 602.175 288.585 z" fill="#ffffff" fill-rule="evenodd" />
  </g>
</svg>
