<?xml version="1.0" encoding="utf-8"?>
<!-- Generator: Adobe Illustrator 27.9.0, SVG Export Plug-In . SVG Version: 6.00 Build 0)  -->
<svg version="1.1" id="Layer_1" xmlns="http://www.w3.org/2000/svg" xmlns:xlink="http://www.w3.org/1999/xlink" x="0px" y="0px"
	 viewBox="0 0 1038.7 328.3" style="enable-background:new 0 0 1038.7 328.3;" xml:space="preserve">
<style type="text/css">
	.st0{fill:#FFFFFF;}
</style>
<path class="st0" d="M132.5,156.9v62h-23.1v-111h0.4l70.8,63.6v-62h23.2v111h-0.4L132.5,156.9z M222.5,164.1
	c0-33.3,24.5-56.6,59.1-56.6c10.9,0,19.7,1.9,27,5.3v22.3c-7.1-3.8-16.3-5.9-27-5.9c-22.5,0-35.6,14-35.6,34.9s13.2,34.9,35.6,34.9
	c10.8,0,20-2.1,27-5.9v22.2c-7.4,3.5-16.1,5.5-27,5.5C247,220.8,222.5,197.3,222.5,164.1z M330.5,109.4h35.6c27,0,42,15.1,42,37.4
	c0,14.2-6.6,25.7-21.1,31.2l24.5,40.8h-26.2l-31.8-54.7h13c11.4,0,18.2-7,18.2-17.3c0-10.5-7.1-17.2-18.3-17.2h-12.9v89.2h-23.1
	V109.4z M442.9,109.4h25.4l27.3,60.9l27.2-60.9h25.4l-52.5,111.2h-0.6L442.9,109.4z M707.6,175.8L669,109.4h26.3l23.8,42.7
	l23.8-42.7h26.3l-38.6,66.4v43h-23.1V175.8z M785.7,109.4h23.1v109.4h-23.1V109.4z M877.1,180.5l-24.4,38.3h-27.5l37.5-55.9
	l-35.9-53.5h27.5l22.9,35.8l22.9-35.8h27.5l-36.1,53.4l37.7,56h-27.5L877.1,180.5z M604.9,119.6c0,7.4-6,13.3-13.3,13.3
	s-13.3-6-13.3-13.3s6-13.3,13.3-13.3S604.9,112.2,604.9,119.6z M552.1,145.7c0,7.4,6,13.3,13.3,13.3s13.3-6,13.3-13.3
	c0-7.4-6-13.3-13.3-13.3S552.1,138.3,552.1,145.7z M552.1,182.6c0,7.4,6,13.3,13.3,13.3s13.3-6,13.3-13.3c0-7.4-6-13.3-13.3-13.3
	S552.1,175.2,552.1,182.6z M591.5,222c7.4,0,13.3-6,13.3-13.3c0-7.4-6-13.3-13.3-13.3s-13.3,6-13.3,13.3
	C578.2,216,584.2,222,591.5,222z M628.4,222c7.4,0,13.3-6,13.3-13.3c0-7.4-6-13.3-13.3-13.3s-13.3,6-13.3,13.3
	C615.1,216,621.1,222,628.4,222z M667.8,182.6c0-7.4-6-13.3-13.3-13.3s-13.3,6-13.3,13.3c0,7.4,6,13.3,13.3,13.3
	S667.8,189.9,667.8,182.6z M667.8,145.7c0-7.4-6-13.3-13.3-13.3s-13.3,6-13.3,13.3c0,7.4,6,13.3,13.3,13.3S667.8,153.1,667.8,145.7z
	 M628.4,106.3c-7.4,0-13.3,6-13.3,13.3s6,13.3,13.3,13.3s13.3-6,13.3-13.3S635.8,106.3,628.4,106.3z"/>
</svg>
