<?xml version="1.0" encoding="UTF-8" standalone="no"?>
<svg width="60px" height="60px" viewBox="0 0 60 60" version="1.1" xmlns="http://www.w3.org/2000/svg" xmlns:xlink="http://www.w3.org/1999/xlink">
    <!-- Generator: Sketch 46.1 (44463) - http://www.bohemiancoding.com/sketch -->
    <title>Group 11</title>
    <desc>Created with Sketch.</desc>
    <defs></defs>
    <g id="STYLE-GUIDE---Branding" stroke="none" stroke-width="1" fill="none" fill-rule="evenodd">
        <g id="Elements" transform="translate(-496.000000, -273.000000)">
            <g id="Header-/-Logo-NCR" transform="translate(270.000000, 273.000000)">
                <g id="Group">
                    <g id="Group-11" transform="translate(226.000000, 0.000000)">
                        <g id="Header---Logo" fill="#54B948">
                            <rect id="box" x="0" y="0" width="60" height="60"></rect>
                        </g>
                        <g id="Page-1" transform="translate(13.000000, 19.000000)" fill="#FEFEFE">
                            <path d="M20.5542012,5 L23,7.48020175 C22.9341926,7.51232834 22.8573284,7.55176947 22.7666101,7.60110674 C22.6259367,7.67955874 22.4566224,7.78569124 22.2540047,7.93614122 C21.8513005,8.23603724 21.324841,8.71133873 20.6527792,9.49356392 L15.8733473,14.9394519 C15.0532854,15.8711231 14.2207014,16.6101782 13.4460652,17 L11,14.5195114 C11.0662071,14.4868111 11.1440037,14.4482305 11.2327239,14.3973156 C11.3739301,14.3205847 11.5432444,14.213018 11.7447963,14.062568 C12.1475006,13.762672 12.6748926,13.2889481 13.3460219,12.5070098 L18.125587,7.06915345 C18.9456489,6.13805591 19.7798315,5.39010864 20.5542012,5" id="Fill-1"></path>
                            <path d="M10.7598652,17.9237633 C11.8700556,17.9237633 12.8893364,17.6992656 13.5812061,17.3332368 C13.8976807,17.1650726 14.3484008,16.8743412 14.7378765,16.5670164 C15.1248916,16.2587155 15.6718527,15.77988 16.1365168,15.2767821 L21.0470006,9.997182 C22.2848745,8.6659525 23.0299229,8.25572131 23.4806429,8.0942503 L26,10.5273312 C25.4740916,11.1008461 19.2054325,17.910656 19.2054325,17.910656 C18.7769955,18.3809856 18.3273691,18.8351403 18.0216942,19.1216886 C17.7284596,19.3988944 17.2242874,19.8098228 16.9644091,20.0039227 C15.4905804,21.1066107 13.5203718,22 10.8684098,22 C4.86044934,22 0,17.0107131 0,11.2667792 C0,4.13988378 5.45840191,0.00522190814 10.4312237,0.00522190814 C11.9539931,-0.040514268 13.1777863,0.220098272 14.1434783,0.555171538 C15.0378098,0.865564002 15.7127279,1.24037754 16.2014522,1.4954125 C15.6235955,1.87357259 15.0637839,2.38824401 14.1400607,3.39443989 L13.1333568,4.49782514 C12.9009564,4.40788662 11.872653,4.04227609 10.5507048,4.08229524 C7.36162449,4.17864798 3.87274764,6.81698392 3.99824385,11.1425386 C4.11526429,15.1887957 7.38527465,17.9237633 10.7598652,17.9237633" id="Fill-3"></path>
                            <path d="M20.4196203,4.66760397 C20.1019186,4.83535993 19.6507932,5.12499346 19.2615949,5.43428916 C18.8747207,5.74065645 18.3281754,6.22035762 17.8632427,6.72292827 L12.9534941,12.0034063 C11.7150864,13.3342981 10.9703193,13.7446936 10.5193306,13.9065928 L8,11.4742011 C8.52644973,10.8995358 14.7943594,4.08987084 14.7943594,4.08987084 C15.2227918,3.62020993 15.6728236,3.16644609 15.9782219,2.87778869 C16.2717268,2.60140273 16.7758937,2.19044943 17.0363161,1.99578 C18.5087622,0.894140675 20.4810007,0 23.1327981,0 C29.1419257,0 34,4.98903165 34,10.732756 C34,17.8614779 28.5420656,21.9945777 23.5684759,21.9945777 C22.0455858,22.0412928 20.8223523,21.7801066 19.8562603,21.4444553 C18.9605712,21.1341834 18.283883,20.7582316 17.7948904,20.5033206 C18.406097,20.0833032 18.929676,19.6207541 19.860088,18.6073854 L20.8667813,17.5033754 C21.0989058,17.5926222 22.1277453,17.9589521 23.4485859,17.9192094 C26.6377694,17.8227114 30.1277032,15.1829605 30.0015248,10.8564463 C29.8843689,6.81175666 26.6127524,4.07648383 23.2381974,4.07648383 C22.1277453,4.07648383 21.1114827,4.30099514 20.4196203,4.66760397" id="Fill-5"></path>
                        </g>
                    </g>
                </g>
            </g>
        </g>
    </g>
</svg>